<?xml version="1.0" encoding="UTF-8" standalone="no"?><svg xmlns="http://www.w3.org/2000/svg" xmlns:xlink="http://www.w3.org/1999/xlink" contentScriptType="application/ecmascript" contentStyleType="text/css" height="725px" preserveAspectRatio="none" style="width:1640px;height:725px;background:#FFFFFF;" version="1.1" viewBox="0 0 1640 725" width="1640px" zoomAndPan="magnify"><defs><filter height="300%" id="f1t4kg5hsvdvv0" width="300%" x="-1" y="-1"><feGaussianBlur result="blurOut" stdDeviation="2.0"/><feColorMatrix in="blurOut" result="blurOut2" type="matrix" values="0 0 0 0 0 0 0 0 0 0 0 0 0 0 0 0 0 0 .4 0"/><feOffset dx="4.0" dy="4.0" in="blurOut2" result="blurOut3"/><feBlend in="SourceGraphic" in2="blurOut3" mode="normal"/></filter></defs><g><text fill="#000000" font-family="sans-serif" font-size="18" font-style="italic" lengthAdjust="spacing" textLength="362" x="632.5" y="16.708">NB - this is NOT a UML use-case diagram</text><!--MD5=[1b123cad1e3e61a534b0c6b10110320f]
cluster problem-solution--><rect fill="#FFFFFF" filter="url(#f1t4kg5hsvdvv0)" height="686" style="stroke:#000000;stroke-width:1.5;" width="1298" x="162" y="27.9531"/><text fill="#000000" font-family="sans-serif" font-size="14" font-weight="bold" lengthAdjust="spacing" textLength="134" x="744" y="42.9482">problem-solution</text><!--MD5=[6e079e4676b4dab2f35ddb1f5a8c8925]
cluster match--><rect fill="#FFFFFF" filter="url(#f1t4kg5hsvdvv0)" height="577" style="stroke:#000000;stroke-width:1.5;" width="64" x="830" y="75.9531"/><text fill="#000000" font-family="sans-serif" font-size="14" font-weight="bold" lengthAdjust="spacing" textLength="48" x="838" y="90.9482">match</text><ellipse cx="573.1604" cy="485.024" fill="#FEFECE" filter="url(#f1t4kg5hsvdvv0)" rx="78.6604" ry="37.5709" style="stroke:#A80036;stroke-width:1.5;"/><text fill="#000000" font-family="sans-serif" font-size="14" lengthAdjust="spacing" textLength="33" x="556.6604" y="471.5738">ACID</text><text fill="#000000" font-family="sans-serif" font-size="14" lengthAdjust="spacing" textLength="95" x="525.6604" y="487.8707">for job-worker</text><text fill="#000000" font-family="sans-serif" font-size="14" lengthAdjust="spacing" textLength="81" x="532.6604" y="504.1676">assignment</text><ellipse cx="572.8148" cy="669.024" fill="#FEFECE" filter="url(#f1t4kg5hsvdvv0)" rx="133.8148" ry="37.5709" style="stroke:#A80036;stroke-width:1.5;"/><text fill="#000000" font-family="sans-serif" font-size="14" lengthAdjust="spacing" textLength="77" x="534.3148" y="655.5738">extendable</text><text fill="#000000" font-family="sans-serif" font-size="14" lengthAdjust="spacing" textLength="173" x="486.3148" y="671.8707">i.e. composite tech stack</text><text fill="#000000" font-family="sans-serif" font-size="14" lengthAdjust="spacing" textLength="71" x="537.3148" y="688.1676">in workers</text><ellipse cx="573.0244" cy="93.024" fill="#FEFECE" filter="url(#f1t4kg5hsvdvv0)" rx="85.0244" ry="37.5709" style="stroke:#A80036;stroke-width:1.5;"/><text fill="#000000" font-family="sans-serif" font-size="14" lengthAdjust="spacing" textLength="104" x="521.0244" y="79.5738">loss of workers</text><text fill="#000000" font-family="sans-serif" font-size="14" lengthAdjust="spacing" textLength="79" x="533.5244" y="95.8707">won't affect</text><text fill="#000000" font-family="sans-serif" font-size="14" lengthAdjust="spacing" textLength="104" x="521.0244" y="112.1676">the final output</text><ellipse cx="572.7655" cy="249.0062" fill="#FEFECE" filter="url(#f1t4kg5hsvdvv0)" rx="65.7655" ry="15.5531" style="stroke:#A80036;stroke-width:1.5;"/><text fill="#000000" font-family="sans-serif" font-size="14" lengthAdjust="spacing" textLength="81" x="529.2655" y="252.7538">parallel jobs</text><ellipse cx="572.8591" cy="321.1249" fill="#FEFECE" filter="url(#f1t4kg5hsvdvv0)" rx="96.3591" ry="21.6718" style="stroke:#A80036;stroke-width:1.5;"/><text fill="#000000" font-family="sans-serif" font-size="14" lengthAdjust="spacing" textLength="156" x="494.8591" y="323.9716">job dependency mgmt</text><ellipse cx="572.7932" cy="576.9118" fill="#FEFECE" filter="url(#f1t4kg5hsvdvv0)" rx="85.2932" ry="19.4586" style="stroke:#A80036;stroke-width:1.5;"/><text fill="#000000" font-family="sans-serif" font-size="14" lengthAdjust="spacing" textLength="131" x="507.2932" y="579.7585">no setup of agents</text><ellipse cx="572.8807" cy="181.9293" fill="#FEFECE" filter="url(#f1t4kg5hsvdvv0)" rx="67.8807" ry="15.9761" style="stroke:#A80036;stroke-width:1.5;"/><text fill="#000000" font-family="sans-serif" font-size="14" lengthAdjust="spacing" textLength="87" x="526.3807" y="185.6768">maintainable</text><ellipse cx="220.3615" cy="104.1477" fill="#FEFECE" filter="url(#f1t4kg5hsvdvv0)" rx="50.3615" ry="14.6946" style="stroke:#A80036;stroke-width:1.5;"/><text fill="#000000" font-family="sans-serif" font-size="14" lengthAdjust="spacing" textLength="54" x="190.3615" y="107.8953">resilient</text><ellipse cx="573.1066" cy="394.7744" fill="#FEFECE" filter="url(#f1t4kg5hsvdvv0)" rx="74.6066" ry="17.3213" style="stroke:#A80036;stroke-width:1.5;"/><text fill="#000000" font-family="sans-serif" font-size="14" lengthAdjust="spacing" textLength="105" x="517.6066" y="398.522">non ephemeral</text><ellipse cx="1389.0625" cy="250.9656" fill="#FEFECE" filter="url(#f1t4kg5hsvdvv0)" rx="63.0625" ry="15.0125" style="stroke:#A80036;stroke-width:1.5;"/><text fill="#000000" font-family="sans-serif" font-size="14" lengthAdjust="spacing" textLength="73" x="1349.5625" y="254.7132">GNU make</text><ellipse cx="1086.8761" cy="226.1175" fill="#FEFECE" filter="url(#f1t4kg5hsvdvv0)" rx="47.3761" ry="14.6644" style="stroke:#A80036;stroke-width:1.5;"/><text fill="#000000" font-family="sans-serif" font-size="14" lengthAdjust="spacing" textLength="50" x="1058.8761" y="229.8651">make -j</text><ellipse cx="1087.1531" cy="627.0544" fill="#FEFECE" filter="url(#f1t4kg5hsvdvv0)" rx="42.1531" ry="14.6013" style="stroke:#A80036;stroke-width:1.5;"/><text fill="#000000" font-family="sans-serif" font-size="14" lengthAdjust="spacing" textLength="43" x="1062.6531" y="630.802">airflow</text><ellipse cx="1086.9914" cy="562.9768" fill="#FEFECE" filter="url(#f1t4kg5hsvdvv0)" rx="31.9914" ry="14.5236" style="stroke:#A80036;stroke-width:1.5;"/><text fill="#000000" font-family="sans-serif" font-size="14" lengthAdjust="spacing" textLength="29" x="1072.4914" y="565.8234">HPC</text><ellipse cx="1087.1869" cy="691.0165" fill="#FEFECE" filter="url(#f1t4kg5hsvdvv0)" rx="39.1869" ry="14.5634" style="stroke:#A80036;stroke-width:1.5;"/><text fill="#000000" font-family="sans-serif" font-size="14" lengthAdjust="spacing" textLength="39" x="1065.5666" y="694.5408">Spark</text><ellipse cx="1087.0634" cy="143.8658" fill="#FEFECE" filter="url(#f1t4kg5hsvdvv0)" rx="70.0634" ry="16.4127" style="stroke:#A80036;stroke-width:1.5;"/><text fill="#000000" font-family="sans-serif" font-size="14" lengthAdjust="spacing" textLength="93" x="1037.5634" y="147.6134">Pattern Rules</text><ellipse cx="1087.0594" cy="387.165" fill="#FEFECE" filter="url(#f1t4kg5hsvdvv0)" rx="64.0594" ry="15.2119" style="stroke:#A80036;stroke-width:1.5;"/><text fill="#000000" font-family="sans-serif" font-size="14" lengthAdjust="spacing" textLength="76" x="1046.0594" y="390.9126">file rename</text><ellipse cx="1389.0597" cy="376.7351" fill="#FEFECE" filter="url(#f1t4kg5hsvdvv0)" rx="61.5597" ry="14.782" style="stroke:#A80036;stroke-width:1.5;"/><text fill="#000000" font-family="sans-serif" font-size="14" lengthAdjust="spacing" textLength="69" x="1351.5597" y="380.4827">filesystem</text><ellipse cx="1086.8761" cy="499.1175" fill="#FEFECE" filter="url(#f1t4kg5hsvdvv0)" rx="47.3761" ry="14.6644" style="stroke:#A80036;stroke-width:1.5;"/><text fill="#000000" font-family="sans-serif" font-size="14" lengthAdjust="spacing" textLength="50" x="1058.8761" y="502.8651">PsExec</text><ellipse cx="861.9706" cy="629.9768" fill="#F08080" filter="url(#f1t4kg5hsvdvv0)" rx="19.9706" ry="14.5236" style="stroke:#A80036;stroke-width:1.5;"/><text fill="#000000" font-family="sans-serif" font-size="14" lengthAdjust="spacing" textLength="12" x="855.9706" y="632.8234">✗</text><ellipse cx="861.9706" cy="565.9768" fill="#F08080" filter="url(#f1t4kg5hsvdvv0)" rx="19.9706" ry="14.5236" style="stroke:#A80036;stroke-width:1.5;"/><text fill="#000000" font-family="sans-serif" font-size="14" lengthAdjust="spacing" textLength="12" x="855.9706" y="568.8234">✗</text><ellipse cx="861.9706" cy="245.9768" fill="#3CB371" filter="url(#f1t4kg5hsvdvv0)" rx="19.9706" ry="14.5236" style="stroke:#A80036;stroke-width:1.5;"/><text fill="#000000" font-family="sans-serif" font-size="14" lengthAdjust="spacing" textLength="12" x="855.9706" y="248.8234">✔</text><ellipse cx="861.9706" cy="309.9768" fill="#3CB371" filter="url(#f1t4kg5hsvdvv0)" rx="19.9706" ry="14.5236" style="stroke:#A80036;stroke-width:1.5;"/><text fill="#000000" font-family="sans-serif" font-size="14" lengthAdjust="spacing" textLength="12" x="855.9706" y="312.8234">✔</text><ellipse cx="861.9706" cy="501.9768" fill="#3CB371" filter="url(#f1t4kg5hsvdvv0)" rx="19.9706" ry="14.5236" style="stroke:#A80036;stroke-width:1.5;"/><text fill="#000000" font-family="sans-serif" font-size="14" lengthAdjust="spacing" textLength="12" x="855.9706" y="504.8234">✔</text><ellipse cx="861.9706" cy="437.9768" fill="#3CB371" filter="url(#f1t4kg5hsvdvv0)" rx="19.9706" ry="14.5236" style="stroke:#A80036;stroke-width:1.5;"/><text fill="#000000" font-family="sans-serif" font-size="14" lengthAdjust="spacing" textLength="12" x="855.9706" y="440.8234">✔</text><ellipse cx="861.9706" cy="373.9768" fill="#3CB371" filter="url(#f1t4kg5hsvdvv0)" rx="19.9706" ry="14.5236" style="stroke:#A80036;stroke-width:1.5;"/><text fill="#000000" font-family="sans-serif" font-size="14" lengthAdjust="spacing" textLength="12" x="855.9706" y="376.8234">✔</text><ellipse cx="861.9706" cy="181.9768" fill="#3CB371" filter="url(#f1t4kg5hsvdvv0)" rx="19.9706" ry="14.5236" style="stroke:#A80036;stroke-width:1.5;"/><text fill="#000000" font-family="sans-serif" font-size="14" lengthAdjust="spacing" textLength="12" x="855.9706" y="184.8234">✔</text><ellipse cx="861.9706" cy="117.9768" fill="#3CB371" filter="url(#f1t4kg5hsvdvv0)" rx="19.9706" ry="14.5236" style="stroke:#A80036;stroke-width:1.5;"/><text fill="#000000" font-family="sans-serif" font-size="14" lengthAdjust="spacing" textLength="12" x="855.9706" y="120.8234">✔</text><!--MD5=[92848cbaf65985a669855153c5362c37]
entity customer--><ellipse cx="57.5" cy="328.9531" fill="#FEFECE" filter="url(#f1t4kg5hsvdvv0)" rx="8" ry="8" style="stroke:#A80036;stroke-width:1.5;"/><path d="M57.5,336.9531 L57.5,363.9531 M44.5,344.9531 L70.5,344.9531 M57.5,363.9531 L44.5,378.9531 M57.5,363.9531 L70.5,378.9531 " fill="none" filter="url(#f1t4kg5hsvdvv0)" style="stroke:#A80036;stroke-width:1.5;"/><text fill="#000000" font-family="sans-serif" font-size="14" lengthAdjust="spacing" textLength="103" x="6" y="397.4482">problem/reqmt</text><!--MD5=[478fe4e23c1db6ff8eabed57c61226c2]
entity architect--><ellipse cx="1573" cy="506.9531" fill="#FEFECE" filter="url(#f1t4kg5hsvdvv0)" rx="8" ry="8" style="stroke:#A80036;stroke-width:1.5;"/><path d="M1573,514.9531 L1573,541.9531 M1560,522.9531 L1586,522.9531 M1573,541.9531 L1560,556.9531 M1573,541.9531 L1586,556.9531 " fill="none" filter="url(#f1t4kg5hsvdvv0)" style="stroke:#A80036;stroke-width:1.5;"/><text fill="#000000" font-family="sans-serif" font-size="14" lengthAdjust="spacing" textLength="120" x="1513" y="575.4482">solution/potential</text><!--MD5=[bf380493eea0f945f62938e7ca86899b]
link customer to ACID--><path d="M109.2884,372.5109 C202.3524,395.0774 397.9284,442.5012 502.89,467.9526 " fill="none" id="customer-ACID" style="stroke:#A80036;stroke-width:1.0;"/><!--MD5=[5a3074a693af773fe88e5bf50730ce3b]
link customer to parallel jobs--><path d="M109.2468,331.8267 C125.6459,324.2538 144.1597,317.0355 162,312.9531 C285.5424,284.6826 432.8561,265.0953 513.2867,255.572 " fill="none" id="customer-parallel jobs" style="stroke:#A80036;stroke-width:1.0;"/><!--MD5=[2a4015ef6dadc75c92ca4921ee40fbf2]
link customer to job dependency mgmt--><path d="M109.1111,350.1858 C119.0038,348.5695 129.3007,347.062 139,345.9531 C254.8498,332.7087 388.9416,326.3449 477.0606,323.3807 " fill="none" id="customer-job dependency mgmt" style="stroke:#A80036;stroke-width:1.0;"/><!--MD5=[09c453c83b689b07913bcd410380428a]
link customer to no setup of agents--><path d="M109.2294,391.1856 C125.8644,400.8138 144.5166,411.1817 162,419.9531 C281.921,480.1173 312.4735,495.3232 439,539.9531 C463.3532,548.5433 490.7582,556.4164 514.4094,562.6712 " fill="none" id="customer-no setup of agents" style="stroke:#A80036;stroke-width:1.0;"/><!--MD5=[116807c00621a0fd159c6fe1aaf67805]
link customer to maintainable--><path d="M99.1103,319.3064 C117.1253,303.8343 139.2749,287.4257 162,276.9531 C278.3969,223.3128 427.7179,198.6153 510.5572,188.3565 " fill="none" id="customer-maintainable" style="stroke:#A80036;stroke-width:1.0;"/><!--MD5=[d5f1785480cba1930dbc40d4a251baf3]
link customer to extendable--><path d="M85.7362,400.52 C105.0088,426.0212 132.3487,458.2696 162,480.9531 C260.9329,556.6377 395.214,610.7502 482.959,640.9409 " fill="none" id="customer-extendable" style="stroke:#A80036;stroke-width:1.0;"/><!--MD5=[1666f0a9fad9dff190ae2e4340206e60]
link customer to resilient--><path d="M65.8616,319.3231 C76.6146,275.1609 98.8719,204.4271 139,155.9531 C153.4488,138.4992 175.3231,124.993 192.7732,116.1246 " fill="none" id="customer-resilient" style="stroke:#A80036;stroke-width:1.0;"/><!--MD5=[6736dea2f98f29881ebde17f83db9434]
link customer to non ephemeral--><path d="M109.2884,363.4693 C201.8418,369.7532 395.7852,382.9211 501.1541,390.0751 " fill="none" id="customer-non ephemeral" style="stroke:#A80036;stroke-width:1.0;"/><!--MD5=[72b0a08481aeec6605b18c51847f5552]
reverse link resilient to resilient_w--><path d="M276.0652,102.2192 C332.9469,100.4441 422.0933,97.6622 487.8768,95.6094 " fill="none" id="resilient-backto-resilient_w" style="stroke:#A80036;stroke-width:1.0;stroke-dasharray:7.0,7.0;"/><polygon fill="#A80036" points="271.0047,102.3771,280.1251,106.0944,276.0023,102.2211,279.8755,98.0983,271.0047,102.3771" style="stroke:#A80036;stroke-width:1.0;"/><text fill="#000000" font-family="sans-serif" font-size="13" lengthAdjust="spacing" textLength="44" x="333" y="96.02">extend</text><!--MD5=[a9edcb9f06a32d79778484b14edef9e9]
link resilient_w to make4resil--><path d="M656.5908,100.1841 C720.6053,105.7217 804.1407,112.948 841.9075,116.215 " fill="none" id="resilient_w-make4resil" style="stroke:#A80036;stroke-width:1.0;"/><!--MD5=[f9d1df2bdbd05203e11284d0bf5d8918]
link make4resil to GNU make--><path d="M875.7078,107.3547 C893.2063,94.9126 924.8924,75.9531 955.5,75.9531 C955.5,75.9531 955.5,75.9531 1241.5,75.9531 C1324.7433,75.9531 1370.5233,193.1527 1384.4078,235.7291 " fill="none" id="make4resil-GNU make" style="stroke:#A80036;stroke-width:1.0;"/><!--MD5=[8ba4326245a88d59d9a5288ccb10f367]
link parallel jobs to make4parallel--><path d="M638.9402,248.2686 C704.2445,247.5907 800.3052,246.5935 841.7463,246.1633 " fill="none" id="parallel jobs-make4parallel" style="stroke:#A80036;stroke-width:1.0;"/><!--MD5=[80e6038a772c02b6a84bb6847fa9132e]
link make4parallel to make -j--><path d="M881.9672,244.1782 C917.459,241.0234 992.3745,234.3643 1041.15,230.0287 " fill="none" id="make4parallel-make -j" style="stroke:#A80036;stroke-width:1.0;"/><!--MD5=[a08ded4945698590c038a6d98c9a6318]
link job dependency mgmt to make4depmg--><path d="M668.4303,317.3208 C730.5783,314.9553 806.4679,312.0668 841.9343,310.7168 " fill="none" id="job dependency mgmt-make4depmg" style="stroke:#A80036;stroke-width:1.0;"/><!--MD5=[3157a3d18ebea29867693c62e3ef7b09]
link no setup of agents to x4setup--><path d="M657.3677,573.7419 C721.3444,571.3068 804.4617,568.1431 842.0218,566.7135 " fill="none" id="no setup of agents-x4setup" style="stroke:#A80036;stroke-width:1.0;"/><!--MD5=[52462ef3e4a2210c4054e1bfc61131f1]
link x4setup to airflow--><path d="M880.7964,571.049 C918.9245,581.386 1005.7971,604.9381 1053.722,617.9311 " fill="none" id="x4setup-airflow" style="stroke:#A80036;stroke-width:1.0;"/><!--MD5=[cbe520f1cfacd68664ec9eee3a825432]
link x4setup to HPC--><path d="M882.3641,565.6816 C921.5236,565.1595 1007.6052,564.0117 1054.6826,563.384 " fill="none" id="x4setup-HPC" style="stroke:#A80036;stroke-width:1.0;"/><!--MD5=[3cff69543088126b5b25b8a4e648753c]
link x4setup to Spark--><path d="M877.0746,575.7714 C904.4149,593.4024 964.2396,631.1763 1017,658.9531 C1031.3069,666.4853 1047.7276,674.0461 1061.0677,679.9258 " fill="none" id="x4setup-Spark" style="stroke:#A80036;stroke-width:1.0;"/><!--MD5=[05d315ef1f561530a44d9ca9f6126e08]
link maintainable to makePR4extdble--><path d="M641.123,181.9531 C706.3719,181.9531 800.7776,181.9531 841.7548,181.9531 " fill="none" id="maintainable-makePR4extdble" style="stroke:#A80036;stroke-width:1.0;"/><!--MD5=[70e8c58976d3103a8c1ceec0407a9dde]
link makePR4extdble to Pattern Rules--><path d="M881.5737,178.6473 C914.29,173.1219 981.277,161.8085 1029.8844,153.5993 " fill="none" id="makePR4extdble-Pattern Rules" style="stroke:#A80036;stroke-width:1.0;"/><!--MD5=[5462e6a93e9706706af76457c0313cfc]
link extendable to spark4extendable--><path d="M693.8875,652.6396 C750.1891,645.0418 811.4063,636.7806 842.0931,632.6395 " fill="none" id="extendable-spark4extendable" style="stroke:#A80036;stroke-width:1.0;"/><!--MD5=[064f56f86d7e39ae7c77f0feb7917f2c]
link make4depmg to GNU make--><path d="M879.6075,302.9274 C898.1703,296.1635 928.4192,286.9531 955.5,286.9531 C955.5,286.9531 955.5,286.9531 1241.5,286.9531 C1281.698,286.9531 1326.346,274.1781 1355.8775,263.8482 " fill="none" id="make4depmg-GNU make" style="stroke:#A80036;stroke-width:1.0;"/><!--MD5=[ec382285174a5db642951f01e17f5344]
reverse link file rename to filesystem--><path d="M1155.952,384.6699 C1207.7978,382.9532 1278.1755,380.6228 1327.9866,378.9734 " fill="none" id="file rename-backto-filesystem" style="stroke:#A80036;stroke-width:1.0;stroke-dasharray:7.0,7.0;"/><polygon fill="#A80036" points="1150.6774,384.8446,1159.8049,388.5444,1155.6747,384.6791,1159.54,380.5488,1150.6774,384.8446" style="stroke:#A80036;stroke-width:1.0;"/><text fill="#000000" font-family="sans-serif" font-size="13" lengthAdjust="spacing" textLength="45" x="1219" y="378.02">include</text><!--MD5=[ab232bb8b615db48343234dd9d061489]
link make -j to GNU make--><path d="M1132.8673,229.7501 C1183.8823,233.9732 1266.6805,240.8273 1324.276,245.5952 " fill="none" id="make -j-to-GNU make" style="stroke:#A80036;stroke-width:1.0;stroke-dasharray:7.0,7.0;"/><polygon fill="#A80036" points="1329.4204,246.021,1320.7811,241.292,1324.4375,245.6085,1320.121,249.2648,1329.4204,246.021" style="stroke:#A80036;stroke-width:1.0;"/><text fill="#000000" font-family="sans-serif" font-size="13" lengthAdjust="spacing" textLength="44" x="1219.5" y="233.02">extend</text><!--MD5=[e7994c8b7414f66e14ea599ee5fe2764]
link Pattern Rules to GNU make--><path d="M1125.863,157.7224 C1183.3499,178.0903 1290.5137,216.0589 1348.7743,236.701 " fill="none" id="Pattern Rules-to-GNU make" style="stroke:#A80036;stroke-width:1.0;stroke-dasharray:7.0,7.0;"/><polygon fill="#A80036" points="1353.5698,238.4,1346.4225,231.6239,1348.8569,236.7301,1343.7507,239.1646,1353.5698,238.4" style="stroke:#A80036;stroke-width:1.0;"/><text fill="#000000" font-family="sans-serif" font-size="13" lengthAdjust="spacing" textLength="44" x="1219.5" y="187.02">extend</text><!--MD5=[02f4539ad12b19b611a353ee8a3177f2]
link spark4extendable to Spark--><path d="M878.4837,638.2388 C890.7757,644.1421 908.1142,651.8963 924,656.9531 C966.5582,670.5003 1017.117,680.0794 1050.5184,685.5458 " fill="none" id="spark4extendable-Spark" style="stroke:#A80036;stroke-width:1.0;"/><!--MD5=[d483967504569a30efc9c35d1b822114]
link no setup of agents to psexec4nosetup--><path d="M629.7523,562.225 C695.5058,545.1609 800.2722,517.9724 842.9611,506.894 " fill="none" id="no setup of agents-psexec4nosetup" style="stroke:#A80036;stroke-width:1.0;"/><!--MD5=[d0d63f9fcdd5978b9ebfae018cb9a6d0]
link psexec4nosetup to PsExec--><path d="M882.3641,501.6816 C917.5211,501.2128 990.4986,500.2398 1039.1166,499.5915 " fill="none" id="psexec4nosetup-PsExec" style="stroke:#A80036;stroke-width:1.0;"/><!--MD5=[97dda526c5df89e804aac983af440e54]
link psexec4nosetup to GNU make--><path d="M873.4579,489.9687 C889.9637,474.0599 922.1332,447.9531 955.5,447.9531 C955.5,447.9531 955.5,447.9531 1241.5,447.9531 C1252.8757,447.9531 1347.4322,311.5747 1378.8764,265.7601 " fill="none" id="psexec4nosetup-GNU make" style="stroke:#A80036;stroke-width:1.0;"/><!--MD5=[da3cb7de42dd52d0f8a4e96831ff8d1c]
link ACID to fs4acid--><path d="M647.4247,472.8494 C712.6496,462.2419 803.0084,447.5469 842.3666,441.1461 " fill="none" id="ACID-fs4acid" style="stroke:#A80036;stroke-width:1.0;"/><!--MD5=[24b290fe12656104cf9344cc45005925]
link fs4acid to file rename--><path d="M881.1834,433.6049 C916.2532,425.6557 991.6162,408.5734 1040.7633,397.4334 " fill="none" id="fs4acid-file rename" style="stroke:#A80036;stroke-width:1.0;"/><!--MD5=[ce4e8bf3c923017b92b2772badd1db29]
link non ephemeral to fs4nonephem--><path d="M644.4382,389.7621 C709.627,385.0252 801.7375,378.332 841.9326,375.4113 " fill="none" id="non ephemeral-fs4nonephem" style="stroke:#A80036;stroke-width:1.0;"/><!--MD5=[729fb430384637e32fac6625c4e384d3]
link fs4nonephem to filesystem--><path d="M874.1942,362.3564 C891.058,347.5859 923.1021,323.9531 955.5,323.9531 C955.5,323.9531 955.5,323.9531 1241.5,323.9531 C1287.758,323.9531 1337.624,347.325 1365.9073,363.028 " fill="none" id="fs4nonephem-filesystem" style="stroke:#A80036;stroke-width:1.0;"/><!--MD5=[7a2f584564755ce02445b3dd614b0385]
link filesystem to architect--><path d="M1405.6533,391.5247 C1432.7231,415.2108 1487.2111,462.8878 1526.6748,497.4186 " fill="none" id="filesystem-architect" style="stroke:#A80036;stroke-width:1.0;"/><!--MD5=[8240357e7b260abf261a8a850ffdf879]
link GNU make to architect--><path d="M1401.4116,265.9901 C1416.0811,284.0312 1440.9079,315.4225 1460,343.9531 C1494.3583,395.297 1529.4882,457.4297 1551.2636,497.3098 " fill="none" id="GNU make-architect" style="stroke:#A80036;stroke-width:1.0;"/><!--MD5=[00e09a848ce0016e29b1afc3dfd90565]
link PsExec to architect--><path d="M1134.3613,500.5451 C1208.7665,503.3608 1357.5096,510.2604 1483,523.9531 C1492.589,524.9994 1502.7182,526.3419 1512.5858,527.7802 " fill="none" id="PsExec-architect" style="stroke:#A80036;stroke-width:1.0;"/><!--MD5=[84d49d9850cf89e4bde52dcdfa192bed]
link Spark to architect--><path d="M1121.3103,683.8871 C1187.7871,669.7323 1338.304,635.4101 1460,590.9531 C1477.5037,584.5588 1495.9996,576.4794 1512.8457,568.5687 " fill="none" id="Spark-architect" style="stroke:#A80036;stroke-width:1.0;"/><!--MD5=[4b079fc9ee4685add240040f9cf961ad]
link HPC to architect--><path d="M1118.8878,561.3128 C1198.8178,557.2012 1408.7433,546.4025 1512.782,541.0507 " fill="none" id="HPC-architect" style="stroke:#A80036;stroke-width:1.0;"/><!--MD5=[ed1f5a801a3df9fa4c6daa391e9e9ad2]
link airflow to architect--><path d="M1124.3286,620.1172 C1208.0138,604.7921 1411.2383,567.5761 1512.9433,548.9511 " fill="none" id="airflow-architect" style="stroke:#A80036;stroke-width:1.0;"/><!--MD5=[a77297bfdf5b2990add67ddbd2ac0592]
@startuml
title <i>NB - this is NOT a UML use-case diagram</i>
left to right direction
skinparam packageStyle rectangle

actor "problem/reqmt" as customer
actor "solution/potential" as architect

rectangle problem-solution {
    
  usecase ACID as "ACID\nfor job-worker\nassignment"
  usecase extendable as "extendable\ni.e. composite tech stack\nin workers"
  usecase resilient_w as "loss of workers\nwon't affect\nthe final output"
  'usecase noservices as "no services\nto monitor / restart"
  customer - - (ACID)
  customer - - (parallel jobs)
  customer - - (job dependency mgmt)
  'customer - - (non multi-user)
  'customer - - (no setup)
  customer - - (no setup of agents)
  customer - - (maintainable)
  customer - - (extendable)
  'customer - - (secure)
  customer - - (resilient)
  customer - - (non ephemeral)
  'customer - - (noservices)

  rectangle match {
  usecase spark4extendable as "✗" #lightcoral
  usecase x4setup as "✗" #lightcoral

	usecase make4parallel as "✔" #mediumseagreen
  usecase make4depmg as "✔" #mediumseagreen
  usecase psexec4nosetup as "✔" #mediumseagreen
  usecase fs4acid as "✔" #mediumseagreen
  usecase fs4nonephem as "✔" #mediumseagreen
  usecase makePR4extdble as "✔" #mediumseagreen
  usecase make4resil as "✔" #mediumseagreen
  }
  
	(resilient) <.. resilient_w : extend
  resilient_w - - make4resil
  make4resil - - (GNU make)
  (parallel jobs) - - make4parallel
  make4parallel - - (make -j)
  (job dependency mgmt) - - make4depmg
  '(no setup) - - spark4extendable
  (no setup of agents) - - x4setup
  x4setup - - (airflow)
  x4setup - - (HPC)
  x4setup - - (Spark)
  maintainable - - makePR4extdble
  makePR4extdble - - (Pattern Rules)
  extendable - - spark4extendable
  
  make4depmg - - (GNU make)
  (file rename) <.. (filesystem) : include
  (make -j) ..> (GNU make)  : extend
  (Pattern Rules) ..> (GNU make)  : extend

	spark4extendable - - (Spark)
  (no setup of agents) - - psexec4nosetup
  psexec4nosetup - - (PsExec)
  psexec4nosetup - - (GNU make)

	ACID - - fs4acid
  fs4acid - - (file rename)
  
  (non ephemeral) - - fs4nonephem
  fs4nonephem - - (filesystem)
  
  (filesystem) - - architect
  (GNU make) - - architect
  (PsExec) - - architect
  (Spark) - - architect
  (HPC) - - architect
  (airflow) - - architect

  ' (reqmt0) .> (payment) : include
}
@enduml

@startuml
title <i>NB - this is NOT a UML use-case diagram</i>
left to right direction
skinparam packageStyle rectangle

actor "problem/reqmt" as customer
actor "solution/potential" as architect

rectangle problem-solution {
    
  usecase ACID as "ACID\nfor job-worker\nassignment"
  usecase extendable as "extendable\ni.e. composite tech stack\nin workers"
  usecase resilient_w as "loss of workers\nwon't affect\nthe final output"
  customer - - (ACID)
  customer - - (parallel jobs)
  customer - - (job dependency mgmt)
  customer - - (no setup of agents)
  customer - - (maintainable)
  customer - - (extendable)
  customer - - (resilient)
  customer - - (non ephemeral)

  rectangle match {
  usecase spark4extendable as "✗" #lightcoral
  usecase x4setup as "✗" #lightcoral

	usecase make4parallel as "✔" #mediumseagreen
  usecase make4depmg as "✔" #mediumseagreen
  usecase psexec4nosetup as "✔" #mediumseagreen
  usecase fs4acid as "✔" #mediumseagreen
  usecase fs4nonephem as "✔" #mediumseagreen
  usecase makePR4extdble as "✔" #mediumseagreen
  usecase make4resil as "✔" #mediumseagreen
  }
  
	(resilient) <.. resilient_w : extend
  resilient_w - - make4resil
  make4resil - - (GNU make)
  (parallel jobs) - - make4parallel
  make4parallel - - (make -j)
  (job dependency mgmt) - - make4depmg
  (no setup of agents) - - x4setup
  x4setup - - (airflow)
  x4setup - - (HPC)
  x4setup - - (Spark)
  maintainable - - makePR4extdble
  makePR4extdble - - (Pattern Rules)
  extendable - - spark4extendable
  
  make4depmg - - (GNU make)
  (file rename) <.. (filesystem) : include
  (make -j) ..> (GNU make)  : extend
  (Pattern Rules) ..> (GNU make)  : extend

	spark4extendable - - (Spark)
  (no setup of agents) - - psexec4nosetup
  psexec4nosetup - - (PsExec)
  psexec4nosetup - - (GNU make)

	ACID - - fs4acid
  fs4acid - - (file rename)
  
  (non ephemeral) - - fs4nonephem
  fs4nonephem - - (filesystem)
  
  (filesystem) - - architect
  (GNU make) - - architect
  (PsExec) - - architect
  (Spark) - - architect
  (HPC) - - architect
  (airflow) - - architect

}
@enduml

PlantUML version 1.2021.7(Sun May 23 12:40:07 UTC 2021)
(GPL source distribution)
Java Runtime: OpenJDK Runtime Environment
JVM: OpenJDK 64-Bit Server VM
Default Encoding: UTF-8
Language: en
Country: null
--></g></svg>